<?xml version="1.0" standalone="no"?>
<!DOCTYPE svg PUBLIC "-//W3C//DTD SVG 20010904//EN"
 "http://www.w3.org/TR/2001/REC-SVG-20010904/DTD/svg10.dtd">
<svg version="1.0" xmlns="http://www.w3.org/2000/svg"
 width="180.000000pt" height="180.000000pt" viewBox="0 0 180.000000 180.000000"
 preserveAspectRatio="xMidYMid meet">
<metadata>
Created by potrace 1.11, written by Peter Selinger 2001-2013
</metadata>
<g transform="translate(0.000000,180.000000) scale(0.100000,-0.100000)"
fill="#000000" stroke="none">
<path d="M1245 1773 c-15 -16 -38 -45 -51 -65 -15 -23 -44 -48 -74 -63 -91
-46 -150 -133 -150 -220 0 -39 -5 -47 -52 -90 -62 -56 -99 -76 -196 -105 -70
-21 -144 -67 -184 -114 -42 -48 -109 -145 -135 -196 -27 -52 -28 -61 -28 -190
0 -74 4 -155 9 -180 19 -97 16 -138 -15 -198 -65 -129 -11 -253 136 -310 110
-43 328 -51 470 -18 217 51 223 97 10 70 -91 -11 -261 -11 -325 0 -65 11 -148
47 -175 76 -28 29 -39 91 -19 109 5 4 36 5 69 2 33 -3 177 -6 321 -6 280 0
294 2 294 51 0 29 -21 41 -89 50 -49 6 -51 7 -30 22 11 8 27 28 34 44 l12 30
28 -49 c59 -102 122 -142 206 -128 37 6 68 29 55 42 -3 4 4 17 16 30 29 31 11
49 -54 52 -39 2 -43 21 -43 202 1 202 4 214 83 311 29 37 60 88 67 113 13 43
13 157 1 215 -21 91 -22 87 30 119 65 40 91 62 102 86 13 29 -2 61 -33 69 -15
4 -45 25 -67 46 -22 22 -45 40 -51 41 -18 1 -42 6 -66 14 -17 5 -21 15 -22 48
-2 114 -32 145 -84 90z"/>
</g>
</svg>
